<svg width="2631" height="1696" viewBox="0 0 2631 1696" fill="none" xmlns="http://www.w3.org/2000/svg">
<g clip-path="url(#clip0_617_5425)">
<path d="M7067.15 -7525.2H-2742.7V1856.64H7067.15V-7525.2Z" fill="#F4F1ED"/>
<path d="M617.98 323.75H978.531V148.42H617.98L664.69 236.09L617.98 323.75Z" fill="#1C0E0C"/>
<path d="M629.321 311.74H989.881V136.41H629.321L676.031 224.08L629.321 311.74Z" fill="#F4F1ED" stroke="#070707" stroke-width="6" stroke-linecap="round" stroke-linejoin="round"/>
<path d="M989.871 136.41V851.34" stroke="#070707" stroke-width="8" stroke-linecap="round" stroke-linejoin="round"/>
<path d="M1724.94 391L1613.08 1341.42H991.33L1103.18 391H1724.94Z" fill="#C5DCDD"/>
<path d="M1859.05 1341.42H1591.5L1704.92 377.65H1745.63L1859.05 1341.42Z" stroke="#070707" stroke-width="6" stroke-linecap="round" stroke-linejoin="round"/>
<path d="M1704.92 377.65L1591.5 1341.42H969.74L1083.17 377.65H1704.92Z" stroke="#070707" stroke-width="6" stroke-linecap="round" stroke-linejoin="round"/>
<path d="M1459 194.36C1485.49 194.36 1510.9 204.883 1529.63 223.615C1548.36 242.346 1558.88 267.751 1558.88 294.24V377.65H1359.09V294.24C1359.09 281.121 1361.67 268.131 1366.7 256.011C1371.72 243.891 1379.08 232.879 1388.36 223.604C1397.63 214.329 1408.65 206.972 1420.77 201.955C1432.89 196.937 1445.88 194.356 1459 194.36Z" fill="#F4F1ED" stroke="#070707" stroke-width="6" stroke-linecap="round" stroke-linejoin="round"/>
<path d="M1391.58 194.36C1418.07 194.36 1443.47 204.883 1462.21 223.615C1480.94 242.346 1491.46 267.751 1491.46 294.24V377.65H1291.7V294.24C1291.7 267.751 1302.22 242.346 1320.95 223.615C1339.69 204.883 1365.09 194.36 1391.58 194.36V194.36Z" stroke="#070707" stroke-width="6" stroke-linecap="round" stroke-linejoin="round"/>
<path d="M1625.56 671.89H1534.49L1546.09 539.24C1548.29 514.09 1570.46 493.7 1595.62 493.7C1620.77 493.7 1639.37 514.09 1637.17 539.24L1625.56 671.89Z" fill="white"/>
<path d="M1617.56 663.88H1526.48L1538.09 531.23C1540.29 506.08 1562.46 485.69 1587.61 485.69C1612.76 485.69 1631.36 506.08 1629.16 531.23L1617.56 663.88Z" stroke="#070707" stroke-width="6" stroke-linecap="round" stroke-linejoin="round"/>
<path d="M1590.85 529.481C1594.94 525.559 1595.35 519.336 1591.76 515.582C1588.17 511.828 1581.93 511.964 1577.83 515.886C1573.74 519.808 1573.33 526.031 1576.92 529.785C1580.52 533.54 1586.75 533.403 1590.85 529.481Z" stroke="#070707" stroke-width="6" stroke-linecap="round" stroke-linejoin="round"/>
<path d="M1584.69 519.05L1597.69 370.8C1598.13 365.772 1600.44 361.09 1604.16 357.68C1607.88 354.27 1612.74 352.379 1617.79 352.38C1620.44 352.379 1623.06 352.9 1625.51 353.913C1627.96 354.926 1630.19 356.411 1632.06 358.284C1633.93 360.158 1635.42 362.382 1636.43 364.829C1637.45 367.277 1637.97 369.901 1637.97 372.55V377.66" stroke="#070707" stroke-width="6" stroke-linecap="round" stroke-linejoin="round"/>
<path d="M1578.67 616C1580.99 615.635 1583.14 614.567 1584.84 612.94C1586.31 611.514 1587.21 609.608 1587.39 607.57C1587.54 606.658 1587.47 605.723 1587.2 604.84C1586.92 603.957 1586.45 603.15 1585.81 602.48C1584.16 601.074 1582.21 600.05 1580.12 599.48L1575.44 598.08C1572.61 597.323 1569.86 596.275 1567.24 594.95C1565.11 593.842 1563.34 592.144 1562.14 590.06C1560.84 587.547 1560.35 584.693 1560.74 581.89C1560.99 577.814 1562.81 573.992 1565.81 571.22C1568.82 568.44 1572.95 566.827 1578.21 566.38H1583.01C1585.35 566.57 1587.65 567.13 1589.81 568.04C1591.68 568.879 1593.3 570.18 1594.53 571.82C1595.5 573.022 1596.27 574.373 1596.81 575.82C1597.28 577.008 1597.49 578.285 1597.41 579.56C1597.3 580.825 1596.7 581.997 1595.74 582.83C1594.81 583.721 1593.56 584.216 1592.27 584.21C1589.8 584.21 1588.27 582.88 1587.82 580.21C1587.61 578.747 1586.99 577.374 1586.02 576.26C1585.05 575.145 1583.77 574.336 1582.35 573.93L1577.56 573.78C1575.69 574.267 1573.93 575.116 1572.39 576.28C1571.72 576.867 1571.18 577.587 1570.8 578.395C1570.42 579.202 1570.22 580.079 1570.2 580.97C1570.06 581.771 1570.1 582.592 1570.32 583.374C1570.54 584.157 1570.93 584.88 1571.47 585.49C1572.87 586.739 1574.52 587.685 1576.3 588.27L1580.98 589.67C1584.03 590.53 1586.45 591.314 1588.24 592.02C1590.02 592.672 1591.64 593.687 1593 595C1594.44 596.392 1595.53 598.105 1596.18 600C1596.86 602.039 1597.11 604.201 1596.89 606.34C1596.64 609.214 1595.7 611.985 1594.16 614.42C1592.54 616.975 1590.3 619.086 1587.66 620.56C1584.71 622.208 1581.44 623.178 1578.07 623.4L1573.26 623.48C1570.64 623.232 1568.09 622.528 1565.71 621.4C1563.73 620.435 1561.97 619.074 1560.53 617.4C1559.27 615.963 1558.3 614.291 1557.69 612.48C1557.15 610.873 1556.93 609.172 1557.07 607.48C1557.2 606.214 1557.81 605.044 1558.77 604.21C1559.75 603.259 1561.07 602.734 1562.44 602.75C1563.43 602.711 1564.42 602.991 1565.24 603.55C1565.99 604.083 1566.5 604.881 1566.67 605.78C1567.04 607.388 1567.49 608.974 1568.04 610.53C1568.47 611.668 1569.16 612.694 1570.04 613.53C1571.15 614.526 1572.49 615.24 1573.93 615.61L1578.67 616Z" fill="#1C0E0C"/>
<path d="M1575.17 629H1575C1574.74 628.978 1574.48 628.904 1574.25 628.782C1574.02 628.661 1573.81 628.495 1573.64 628.293C1573.47 628.092 1573.34 627.859 1573.26 627.608C1573.19 627.357 1573.16 627.093 1573.18 626.83L1578.91 561.3C1578.93 561.038 1579.01 560.782 1579.13 560.548C1579.25 560.315 1579.42 560.107 1579.62 559.938C1579.82 559.768 1580.06 559.64 1580.31 559.561C1580.56 559.481 1580.82 559.452 1581.09 559.475C1581.35 559.498 1581.6 559.573 1581.84 559.695C1582.07 559.816 1582.28 559.983 1582.45 560.185C1582.62 560.387 1582.75 560.62 1582.82 560.872C1582.9 561.123 1582.93 561.388 1582.91 561.65L1577.18 627.18C1577.14 627.681 1576.9 628.146 1576.53 628.483C1576.16 628.82 1575.67 629.005 1575.17 629Z" fill="#1C0E0C"/>
<path d="M958.54 853.87H885.94C885.94 853.87 816.19 792.1 785.71 755.67C781.549 750.66 777.747 745.364 774.33 739.82C760.19 716.89 776.53 687.32 803.47 687.17H804.25C877.94 687.17 958.58 820.66 958.54 853.87Z" fill="#1C0E0C"/>
<path d="M998.57 853.87H947.49C947.49 853.87 898.43 810.42 877 784.78C874.071 781.259 871.398 777.533 869 773.63C866.745 769.964 865.506 765.764 865.408 761.461C865.31 757.159 866.357 752.907 868.443 749.142C870.529 745.377 873.578 742.235 877.278 740.036C880.978 737.838 885.196 736.662 889.5 736.63H890C941.86 736.59 998.6 830.51 998.57 853.87Z" fill="#F4F1ED"/>
<path d="M846.72 617.43C968.92 616.15 1011.43 790.78 1008.72 853.87H958.54C958.54 820.66 877.94 687.17 804.25 687.17C778.11 687.17 762.71 710.46 770.59 731.55C770.59 731.55 719.94 618.76 846.72 617.43Z" fill="#EFAF00" stroke="black" stroke-width="6" stroke-linecap="round" stroke-linejoin="round"/>
<path d="M1316.19 824.36C1326.44 799.8 1312.64 771.5 1287.08 763.79C1168.56 728.04 1047.38 853.87 1047.38 853.87H969.74C969.74 853.87 1079.84 670.56 1263.14 697.81C1303.27 703.77 1356 742.42 1316.19 824.36Z" fill="#EFAF00" stroke="black" stroke-width="6" stroke-linecap="round" stroke-linejoin="round"/>
<path d="M1316 824.78C1310.49 837.66 1303.75 849.72 1299 853.87H1231.61C1231.61 853.87 1247.75 848.41 1263.33 824.78C1282.26 796.09 1273.5 760.58 1247.55 758.15C1260.87 758.56 1274.13 759.88 1287.11 763.79C1312.78 771.55 1326.6 800.12 1316 824.78Z" fill="#1C0E0C"/>
<path d="M1356.67 852H812.27C788.373 852 769 871.373 769 895.27V1439.67C769 1463.57 788.373 1482.94 812.27 1482.94H1356.67C1380.57 1482.94 1399.94 1463.57 1399.94 1439.67V895.27C1399.94 871.373 1380.57 852 1356.67 852Z" fill="#EFAF00" stroke="black" stroke-width="6" stroke-linecap="round" stroke-linejoin="round"/>
<path d="M1259.28 851.87H731.92C708.023 851.87 688.65 871.243 688.65 895.14V1439.54C688.65 1463.44 708.023 1482.81 731.92 1482.81H1259.28C1283.18 1482.81 1302.55 1463.44 1302.55 1439.54V895.14C1302.55 871.243 1283.18 851.87 1259.28 851.87Z" fill="#F4F1ED" stroke="#070707" stroke-width="6" stroke-linecap="round" stroke-linejoin="round"/>
<path d="M950.64 928.46C945.132 922.949 938.113 919.195 930.471 917.674C922.829 916.153 914.908 916.932 907.709 919.913C900.51 922.894 894.357 927.944 890.028 934.422C885.7 940.901 883.39 948.518 883.39 956.31V1071.07H962.18V956.31C962.188 951.136 961.172 946.012 959.192 941.233C957.211 936.453 954.305 932.112 950.64 928.46V928.46ZM922.79 957.46C921.107 957.462 919.461 956.964 918.06 956.031C916.659 955.097 915.567 953.768 914.921 952.213C914.275 950.659 914.105 948.947 914.433 947.296C914.76 945.644 915.57 944.127 916.759 942.936C917.949 941.745 919.465 940.933 921.116 940.604C922.768 940.275 924.479 940.443 926.035 941.087C927.59 941.731 928.92 942.821 929.855 944.221C930.791 945.621 931.29 947.266 931.29 948.95C931.293 950.068 931.075 951.176 930.649 952.21C930.223 953.244 929.598 954.185 928.808 954.977C928.019 955.769 927.081 956.398 926.049 956.827C925.016 957.257 923.909 957.479 922.79 957.48V957.46Z" fill="#F4F1ED"/>
<path d="M945.3 921.12C939.79 915.607 932.769 911.853 925.124 910.332C917.479 908.812 909.555 909.594 902.355 912.579C895.155 915.564 889.002 920.618 884.676 927.101C880.349 933.584 878.044 941.205 878.05 949V1063.76H956.84V949C956.852 943.821 955.838 938.691 953.857 933.906C951.877 929.121 948.968 924.776 945.3 921.12ZM917.45 950.12C915.769 950.12 914.126 949.621 912.728 948.687C911.33 947.753 910.241 946.426 909.597 944.873C908.954 943.319 908.786 941.61 909.114 939.962C909.442 938.313 910.251 936.798 911.44 935.609C912.629 934.421 914.143 933.611 915.792 933.283C917.441 932.955 919.15 933.124 920.703 933.767C922.256 934.41 923.584 935.5 924.518 936.897C925.452 938.295 925.95 939.939 925.95 941.62C925.952 942.737 925.733 943.844 925.306 944.877C924.88 945.91 924.254 946.849 923.465 947.64C922.676 948.431 921.738 949.059 920.706 949.488C919.674 949.917 918.568 950.139 917.45 950.14V950.12Z" stroke="#070707" stroke-width="6" stroke-linecap="round" stroke-linejoin="round"/>
<path d="M917.45 938.43V849.9C917.449 847.313 917.957 844.752 918.946 842.362C919.935 839.972 921.385 837.8 923.214 835.971C925.042 834.141 927.214 832.69 929.603 831.7C931.993 830.71 934.554 830.2 937.14 830.2V830.2C942.365 830.2 947.376 832.275 951.07 835.97C954.765 839.664 956.84 844.675 956.84 849.9V851.9" stroke="#070707" stroke-width="6" stroke-linecap="round" stroke-linejoin="round"/>
<path d="M933.461 1008.41C932.75 1006.76 931.685 1005.3 930.341 1004.11C929.086 1002.96 927.628 1002.06 926.04 1001.45C924.43 1000.84 922.27 1000.17 919.57 999.45H919.38V985.81H919.57C920.842 986.17 921.995 986.863 922.909 987.818C923.823 988.772 924.466 989.954 924.771 991.24C925.411 993.56 926.77 994.71 928.93 994.71C929.469 994.717 930.004 994.615 930.502 994.411C931 994.206 931.452 993.903 931.831 993.52C932.21 993.154 932.512 992.714 932.716 992.227C932.921 991.741 933.025 991.218 933.021 990.69C932.985 989.566 932.712 988.462 932.22 987.45C931.651 986.198 930.904 985.036 930 984C928.811 982.587 927.313 981.468 925.62 980.73C923.705 979.947 921.682 979.462 919.62 979.29H919.43V975.14C919.43 974.609 919.22 974.101 918.845 973.726C918.47 973.351 917.961 973.14 917.43 973.14C916.9 973.14 916.391 973.351 916.016 973.726C915.641 974.101 915.43 974.609 915.43 975.14V979.3C910.93 979.693 907.49 981.087 905.11 983.48C903.916 984.694 902.982 986.138 902.365 987.725C901.748 989.312 901.46 991.008 901.521 992.71C901.413 995.194 902.054 997.654 903.36 999.77C904.55 1001.58 906.199 1003.05 908.141 1004.01C910.477 1005.14 912.918 1006.05 915.43 1006.71V1021.92C914.149 1021.6 912.959 1020.98 911.951 1020.13C911.109 1019.41 910.428 1018.53 909.951 1017.53C909.364 1016.19 908.85 1014.82 908.41 1013.42C908.18 1012.63 907.681 1011.95 907 1011.49C906.26 1011.01 905.391 1010.77 904.51 1010.8C903.942 1010.79 903.377 1010.89 902.852 1011.11C902.327 1011.32 901.853 1011.65 901.461 1012.06C901.078 1012.43 900.773 1012.87 900.562 1013.35C900.35 1013.84 900.238 1014.36 900.23 1014.89C900.243 1016.38 900.553 1017.86 901.141 1019.23C901.828 1020.8 902.785 1022.25 903.97 1023.49C905.337 1024.91 906.958 1026.07 908.75 1026.9C910.855 1027.87 913.106 1028.47 915.41 1028.7V1031.83C915.41 1032.36 915.621 1032.87 915.996 1033.24C916.371 1033.62 916.88 1033.83 917.41 1033.83C917.941 1033.83 918.45 1033.62 918.825 1033.24C919.2 1032.87 919.41 1032.36 919.41 1031.83V1028.64H919.6C922.449 1028.46 925.217 1027.62 927.68 1026.18C929.854 1024.91 931.639 1023.07 932.841 1020.86C934.007 1018.71 934.609 1016.3 934.591 1013.86C934.595 1011.98 934.21 1010.13 933.461 1008.41V1008.41ZM911 995.81C910.046 994.69 909.531 993.262 909.549 991.791C909.568 990.32 910.119 988.906 911.1 987.81C912.346 986.797 913.796 986.063 915.35 985.66V998.2C913.76 997.69 912.284 996.879 911 995.81V995.81ZM924.641 1019.61C923.277 1021.03 921.486 1021.96 919.54 1022.27H919.35V1007.89H919.54C921.423 1008.41 923.18 1009.31 924.701 1010.53C925.296 1011.09 925.761 1011.78 926.063 1012.54C926.366 1013.3 926.498 1014.11 926.451 1014.93C926.485 1016.66 925.847 1018.34 924.67 1019.61H924.641Z" fill="#1C0E0C"/>
<path d="M650.4 693.91C667.841 693.91 681.98 679.771 681.98 662.33C681.98 644.889 667.841 630.75 650.4 630.75C632.959 630.75 618.82 644.889 618.82 662.33C618.82 679.771 632.959 693.91 650.4 693.91Z" fill="#F4F1ED" stroke="#070707" stroke-width="6" stroke-linecap="round" stroke-linejoin="round"/>
<path d="M1818.42 1468.69C1835.86 1468.69 1850 1454.55 1850 1437.11C1850 1419.67 1835.86 1405.53 1818.42 1405.53C1800.98 1405.53 1786.84 1419.67 1786.84 1437.11C1786.84 1454.55 1800.98 1468.69 1818.42 1468.69Z" fill="#F4F1ED" stroke="#070707" stroke-width="6" stroke-linecap="round" stroke-linejoin="round"/>
<path d="M1915.64 791.11C1923.01 791.11 1928.98 785.137 1928.98 777.77C1928.98 770.402 1923.01 764.43 1915.64 764.43C1908.27 764.43 1902.3 770.402 1902.3 777.77C1902.3 785.137 1908.27 791.11 1915.64 791.11Z" fill="#F4F1ED" stroke="#070707" stroke-width="6" stroke-linecap="round" stroke-linejoin="round"/>
<path d="M1863.46 1494.82C1868.99 1494.82 1873.47 1490.34 1873.47 1484.81C1873.47 1479.28 1868.99 1474.8 1863.46 1474.8C1857.93 1474.8 1853.45 1479.28 1853.45 1484.81C1853.45 1490.34 1857.93 1494.82 1863.46 1494.82Z" fill="#F4F1ED" stroke="#070707" stroke-width="6" stroke-linecap="round" stroke-linejoin="round"/>
<path d="M643.9 1180.65C649.429 1180.65 653.91 1176.17 653.91 1170.64C653.91 1165.11 649.429 1160.63 643.9 1160.63C638.372 1160.63 633.89 1165.11 633.89 1170.64C633.89 1176.17 638.372 1180.65 643.9 1180.65Z" fill="#C5DCDD"/>
</g>
<defs>
<clipPath id="clip0_617_5425">
<rect width="2630.79" height="1695.32" fill="white"/>
</clipPath>
</defs>
</svg>
